Coordinates
version=1
nRows=19
nColumns=33
inDegrees=yes

Units are S.I. units (second, meters, Newtons, ...)
Angles are in degrees.

endheader
time	ground_thorax_rot_x	ground_thorax_rot_y	ground_thorax_rot_z	ground_thorax_tx	ground_thorax_ty	ground_thorax_tz	clav_prot_r	clav_elev_r	scapula_abduction_r	scapula_elevation_r	scapula_upward_rot_r	scapula_winging_r	shoulder_elv_r	plane_of_elev_r	axial_rot_r	elbow_flexion_r	pro_sup_r	wrist_flex_r	wrist_dev_r	clav_prot_l	clav_elev_l	scapula_abduction_l	scapula_elevation_l	scapula_upward_rot_l	scapula_winging_l	shoulder_elv_l	plane_of_elev_l	axial_rot_l	elbow_flexion_l	pro_sup_l	wrist_flex_l	wrist_dev_l	
7.1900	25.964285	30.075256	44.605087	-136.227004	792.206433	7.394612	12.664754	37.906202	35.774983	45.000000	-39.389808	2072.952257	-1196.204883	147.337461	-125.950771	1452.176561	21.951662	18.865373	9.845405	8.452729	-45.000000	-36.705761	45.000000	-45.000000	-2423.127734	1512.167174	20.091262	-57.401360	1449.437228	16.860315	9.090379	-18.653382	
7.2000	25.400603	30.556416	45.705195	-131.551412	790.380370	7.448558	12.667048	37.802195	35.584816	45.000000	-39.810064	2073.255233	-1196.427666	147.477750	-125.606393	1452.020171	22.081658	18.751514	10.046172	8.465627	-45.000000	-36.660874	45.000000	-45.000000	-2423.142875	1511.915676	19.743885	-58.510979	1449.313929	17.552241	9.204639	-18.611674	
7.2100	24.844187	31.013873	46.789759	-126.870180	788.587555	7.516521	12.695238	37.712458	35.401256	45.000000	-40.230874	2073.536052	-1196.666119	147.609246	-125.224517	1451.854184	22.254321	18.635642	10.220286	8.456320	-45.000000	-36.597030	45.000000	-45.000000	-2423.159039	1511.678231	19.386949	-59.661403	1449.187936	18.254320	9.296968	-18.576470	
7.2200	24.288477	31.447853	47.863966	-122.195163	786.844415	7.598104	12.746512	37.637082	35.214810	45.000000	-40.646549	2073.803297	-1196.915557	147.733280	-124.798027	1451.677634	22.460287	18.517580	10.367876	8.426609	-45.000000	-36.524017	45.000000	-45.000000	-2423.179093	1511.460497	19.014000	-60.844093	1449.056406	18.968889	9.366735	-18.547436	
7.2300	23.743642	31.854346	48.915687	-117.539774	785.168824	7.693626	12.816004	37.577127	35.025307	45.000000	-41.042395	2074.046048	-1197.177698	147.839388	-124.334450	1451.488279	22.690857	18.396528	10.487402	8.382303	-45.000000	-36.432835	45.000000	-45.000000	-2423.202061	1511.259367	18.635482	-62.048152	1448.918533	19.698897	9.408619	-18.524980	
7.2400	23.195857	32.242084	49.962361	-112.919787	783.579834	7.803668	12.879783	37.517655	34.824746	44.999999	-41.424711	2074.287662	-1197.435394	147.945185	-123.835219	1451.287124	22.939192	18.272042	10.582390	8.341044	-45.000000	-36.345170	45.000000	-45.000000	-2423.221930	1511.074257	18.245085	-63.274014	1448.775416	20.447227	9.429091	-18.508361	
7.2500	22.651037	32.608840	50.997325	-108.353606	782.097119	7.928572	12.936832	37.455068	34.619309	44.999999	-41.791046	2074.529242	-1197.682938	148.056443	-123.315396	1451.079201	23.198905	18.145182	10.653906	8.303079	-45.000000	-36.258091	45.000000	-45.000000	-2423.237258	1510.904745	17.848563	-64.508505	1448.632562	21.213809	9.426855	-18.498109	
7.2600	22.107969	32.957058	52.017108	-103.862677	780.740250	8.067862	12.982389	37.386259	34.405733	44.999998	-42.139644	2074.781162	-1197.913536	148.181235	-122.780383	1450.865302	23.467426	18.015936	10.705016	8.271820	-45.000000	-36.182192	45.000000	-45.000000	-2423.253191	1510.752283	17.445588	-65.734813	1448.492272	21.998657	9.404822	-18.493877	
7.2700	21.581315	33.280956	53.000386	-99.471498	779.527743	8.220325	13.028789	37.315707	34.187748	44.999997	-42.454103	2075.033513	-1198.131063	148.313693	-122.243606	1450.648162	23.743060	17.884232	10.734581	8.239750	-45.000000	-36.105499	45.000000	-45.000000	-2423.277963	1510.617905	17.043923	-66.926096	1448.358890	22.801002	9.357809	-18.496265	
7.2800	21.076831	33.581442	53.934327	-95.207830	778.476071	8.384369	13.063165	37.246902	33.962635	44.999995	-42.718070	2075.291763	-1198.333578	148.461656	-121.710279	1450.429464	24.027342	17.751089	10.746868	8.214182	-45.000000	-36.032535	45.000000	-45.000000	-2423.316067	1510.497174	16.651684	-68.062208	1448.231553	23.622219	9.286276	-18.503732	
7.2900	20.592214	33.860236	54.819665	-91.102065	777.598664	8.558900	13.101568	37.164970	33.713800	44.999990	-42.918687	2075.561464	-1198.515536	148.623353	-121.194607	1450.215801	24.319190	17.614657	10.738263	8.196822	-45.000000	-35.958493	45.000000	-45.000000	-2423.375964	1510.399151	16.263207	-69.123876	1448.113936	24.460283	9.189104	-18.516694	
7.3000	20.135913	34.116829	55.646399	-87.187595	776.906068	8.745513	13.118769	37.096413	33.451400	44.999983	-43.062557	2075.826284	-1198.685321	148.782372	-120.706661	1450.004982	24.621051	17.481028	10.719900	8.192535	-45.000000	-35.893620	45.000000	-45.000000	-2423.438388	1510.302535	15.901842	-70.110871	1448.003225	25.320280	9.067812	-18.533400	
7.3100	19.705015	34.357676	56.425863	-83.499613	776.405662	8.949325	13.133691	37.014541	33.180476	44.999969	-43.173249	2076.086916	-1198.836772	148.934768	-120.266819	1449.800850	24.932617	17.347947	10.688354	8.200558	-45.000000	-35.833240	45.000000	-45.000000	-2423.507925	1510.218372	15.552035	-71.027852	1447.911968	26.207786	8.924287	-18.556950	
7.3200	19.332064	34.572754	57.118383	-80.078772	776.107880	9.188207	13.122486	36.969280	32.939960	44.999944	-43.267789	2076.317168	-1198.989187	149.058572	-119.896431	1449.605865	25.257426	17.227694	10.661869	8.207152	-45.000000	-35.784658	45.000000	-45.000000	-2423.559014	1510.114738	15.255052	-71.886306	1447.841368	27.134966	8.758314	-18.582426	
7.3300	19.032558	34.767756	57.714306	-76.965697	776.021800	9.484871	13.130489	36.919315	32.743570	44.999900	-43.364326	2076.522210	-1199.135837	149.154653	-119.621959	1449.423922	25.595108	17.113316	10.629757	8.201380	-45.000000	-35.727218	45.000000	-45.000000	-2423.627030	1510.015889	14.978616	-72.670951	1447.809554	28.107967	8.571299	-18.613974	
7.3400	18.874642	34.937287	58.136436	-74.233488	776.196298	9.919181	13.135674	36.936414	32.629264	44.999821	-43.442217	2076.678386	-1199.297785	149.209637	-119.464107	1449.253476	25.947381	17.017351	10.614422	8.159165	-45.000000	-35.671148	45.000000	-45.000000	-2423.693564	1509.870564	14.766586	-73.389580	1447.830197	29.125171	8.366408	-18.638595	
7.3500	18.888253	35.089956	58.359347	-71.928787	776.651178	10.538733	13.189353	36.974155	32.600481	44.999679	-43.480254	2076.799928	-1199.466792	149.240877	-119.427567	1449.095504	26.313855	16.927955	10.599020	8.068833	-45.000000	-35.579061	45.000000	-45.000000	-2423.822027	1509.711752	14.571575	-74.008904	1447.924182	30.188617	8.148529	-18.655369	
7.3600	19.248738	35.238862	58.200434	-70.285858	777.644651	11.712045	13.305869	37.128810	32.678113	44.999426	-43.337489	2076.868142	-1199.675538	149.257624	-119.501643	1448.944582	26.689296	16.844086	10.590094	7.867160	-45.000000	-35.447791	45.000000	-45.000000	-2424.067538	1509.474692	14.395939	-74.560814	1448.175242	31.200704	7.923553	-18.594884	
7.3700	19.858232	35.400293	57.766276	-69.208642	779.049250	13.329798	13.491270	37.287897	32.805839	44.998970	-43.057772	2076.914891	-1199.885966	149.271990	-119.672224	1448.813934	27.045100	16.752437	10.568132	7.634528	-45.000000	-35.280957	45.000000	-45.000000	-2424.459990	1509.214322	14.181001	-74.970235	1448.557097	32.068482	7.750661	-18.467907	
